<svg width="84" height="84" viewBox="0 0 84 84" fill="none" xmlns="http://www.w3.org/2000/svg">
<path d="M82.3594 33.8782H68.9062V30.405C68.9062 29.4994 68.1712 28.7644 67.2656 28.7644H31.8281C30.9225 28.7644 30.1875 29.4994 30.1875 30.405C30.1875 31.3107 30.9225 32.0457 31.8281 32.0457H65.625V44.6243C65.625 55.6739 59.7253 65.9426 50.1998 71.5306H18.7064C9.18094 65.9426 3.28125 55.6739 3.28125 44.6243V32.0457H14.2734C15.1791 32.0457 15.9141 31.3107 15.9141 30.405C15.9141 29.4994 15.1791 28.7644 14.2734 28.7644H1.64062C0.735 28.7644 0 29.4994 0 30.405V44.6243C0 50.8259 1.66688 56.906 4.82016 62.2085C6.94641 65.7851 9.70594 68.9417 12.938 71.5306H1.64062C0.735 71.5306 0 72.2656 0 73.1712C0 79.1414 4.85789 83.9993 10.8281 83.9993H62.0156C67.9859 83.9993 72.8438 79.1414 72.8438 73.1712C72.8438 72.2656 72.1087 71.5306 71.2031 71.5306H55.9683C58.9427 69.1484 61.5152 66.2839 63.5644 63.0535H68.1959C76.9109 63.0535 84 55.9643 84 47.2493V35.5189C84 34.6132 83.265 33.8782 82.3594 33.8782ZM62.0156 80.7181H10.8281C7.23023 80.7181 4.21148 78.1866 3.46172 74.8118H18.2667H50.6395H69.382C68.6323 78.1866 65.6135 80.7181 62.0156 80.7181ZM68.9062 43.722H74.1562V47.2493C74.1562 50.5355 71.482 53.2097 68.1959 53.2097H67.8234C68.5387 50.419 68.9062 47.5348 68.9062 44.6243V43.722ZM80.7188 47.2493C80.7188 54.1547 75.1012 59.7722 68.1959 59.7722H65.4035C65.9269 58.7025 66.3961 57.6066 66.8046 56.491H68.1959C73.2916 56.491 77.4375 52.3451 77.4375 47.2493V42.0814C77.4375 41.1757 76.7025 40.4407 75.7969 40.4407H68.9062V37.1595H80.7188V47.2493Z" fill="#FF699F"/>
<path d="M33.4523 11.1228C35.0897 13.1785 35.093 16.0512 33.4589 18.1102L32.5844 19.2127C32.0217 19.9231 32.1398 20.955 32.8502 21.5178C33.1521 21.7573 33.5114 21.8738 33.8691 21.8738C34.353 21.8738 34.8321 21.6605 35.1553 21.2536L36.0298 20.1511C38.6187 16.8896 38.6154 12.3368 36.0199 9.07855L35.1668 8.00722C33.9134 6.43386 33.9117 4.23542 35.1619 2.66042C35.7246 1.95003 35.6065 0.918081 34.8961 0.355347C34.1857 -0.207388 33.1537 -0.0892628 32.591 0.621128C30.386 3.40035 30.3893 7.27878 32.5992 10.0531L33.4523 11.1228Z" fill="#FF699F"/>
<path d="M42.5463 14.8125C44.1837 16.8682 44.1853 19.7426 42.5529 21.8016L41.6784 22.9041C41.1157 23.6145 41.2338 24.6464 41.9442 25.2092C42.2461 25.4487 42.6054 25.5652 42.9631 25.5652C43.447 25.5652 43.9261 25.3519 44.2493 24.945L45.1238 23.8425C47.7127 20.581 47.7094 16.0282 45.1139 12.77L44.2608 11.6986C43.0073 10.1253 43.0057 7.92683 44.2559 6.35183C44.8186 5.64144 44.7005 4.60949 43.9901 4.04675C43.2797 3.48402 42.2477 3.60214 41.685 4.31253C39.48 7.09175 39.4833 10.9702 41.6932 13.7445L42.5463 14.8125Z" fill="#FF699F"/>
<path d="M24.36 14.8125C25.9973 16.8682 25.999 19.7425 24.3666 21.7999L23.4921 22.9024C22.9294 23.6128 23.0475 24.6447 23.7579 25.2075C24.0598 25.447 24.4191 25.5635 24.7767 25.5635C25.2607 25.5635 25.7398 25.3502 26.063 24.9433L26.9374 23.8408C29.5263 20.5793 29.523 16.0265 26.9276 12.7682L26.0744 11.6969C24.821 10.1236 24.8194 7.92512 26.0695 6.35012C26.6323 5.63973 26.5141 4.60778 25.8037 4.04504C25.0934 3.48231 24.0614 3.60043 23.4987 4.31083C21.2937 7.09004 21.2969 10.9685 23.5069 13.7428L24.36 14.8125Z" fill="#FF699F"/>
<path d="M23.4954 28.7644C23.0639 28.7644 22.6406 28.9399 22.3354 29.2451C22.0303 29.5519 21.8547 29.9735 21.8547 30.405C21.8547 30.8365 22.0303 31.2598 22.3354 31.5666C22.6406 31.8717 23.0639 32.0456 23.4954 32.0456C23.9268 32.0456 24.3501 31.8717 24.6553 31.5666C24.9621 31.2598 25.136 30.8381 25.136 30.405C25.136 29.9735 24.9621 29.5503 24.6553 29.2451C24.3501 28.9399 23.9268 28.7644 23.4954 28.7644Z" fill="#FF699F"/>
<path d="M53.3039 63.3536C58.2143 58.399 61.0313 51.5723 61.0313 44.6243C61.0313 43.7186 60.2963 42.9836 59.3907 42.9836C58.485 42.9836 57.75 43.7186 57.75 44.6243C57.75 50.7143 55.2792 56.6993 50.9726 61.0436C50.3344 61.6868 50.3393 62.7253 50.9824 63.3635C51.3024 63.6801 51.7191 63.8393 52.1374 63.8393C52.5607 63.8393 52.9824 63.6768 53.3039 63.3536Z" fill="#FF699F"/>
<path d="M46.7513 67.9653C47.0236 67.9653 47.3009 67.8964 47.5552 67.7537L47.5929 67.7324C48.382 67.2878 48.661 66.287 48.2163 65.4978C47.7717 64.7087 46.7709 64.4298 45.9818 64.8744L45.9441 64.8957C45.1549 65.3403 44.876 66.3411 45.3206 67.1303C45.6225 67.6651 46.177 67.9653 46.7513 67.9653Z" fill="#FF699F"/>
</svg>
